<?xml version="1.0" encoding="utf-8"?>
<!-- Generator: Adobe Illustrator 16.0.2, SVG Export Plug-In . SVG Version: 6.00 Build 0)  -->
<!DOCTYPE svg PUBLIC "-//W3C//DTD SVG 1.1//EN" "http://www.w3.org/Graphics/SVG/1.1/DTD/svg11.dtd">
<svg version="1.1" id="Layer_1" xmlns="http://www.w3.org/2000/svg" xmlns:xlink="http://www.w3.org/1999/xlink" x="0px" y="0px"
	 width="533.709px" height="538.994px" viewBox="0 0 533.709 538.994" enable-background="new 0 0 533.709 538.994"
	 xml:space="preserve">
<g>
	<path fill-rule="evenodd" clip-rule="evenodd" d="M323.193,226.645c39.244,24.41,75.644,47.053,115.706,71.978
		c7.687-5.443,20.518-14.485,33.308-23.596c16.733-11.923,36.27-11.452,49.046,3.779c3.513,4.191,2.568,15.766-0.705,21.426
		c-23.705,40.994-48.427,81.404-73.095,121.833c-4.729,7.745-9.06,19.278-21.177,13.509c-12.203-5.8-28.746-9.521-27.842-28.026
		c0.891-18.185,3.495-36.292,4.924-50.249c-40.704-19.793-79.74-38.778-119.825-58.269c-16.168,17.561-22.275,40.532-27.606,64.119
		c-8.975,39.719-18.474,79.324-28.171,118.881c-5.593,22.809-12.452,26.109-34.167,17.908
		c-28.122-10.606-31.047-14.689-31.318-45.384c-0.605-68.198-1.514-136.4-1.325-204.593c0.045-15.865-4.177-25.531-19.237-32.95
		c-30.238-14.884-60.119-30.866-88.548-48.915c-13.988-8.884-26.951-21.77-35.867-35.727C3.526,110.834,15.381,90.43,40.637,91.746
		c17.786,0.931,36.644,4.67,52.618,12.229c32.58,15.413,63.735,33.905,95.022,51.921c8.735,5.028,15.083,4.992,23.944,0.068
		c64.671-35.921,129.717-71.172,194.611-106.705c25.712-14.075,46.608-10.335,65.331,12.008
		c10.309,12.302,2.247,20.797-6.506,28.579c-35.89,31.91-72.438,63.093-107.682,95.687
		C344.877,197.641,334.677,212.878,323.193,226.645z"/>
</g>
</svg>
